<?xml version="1.0" standalone="no"?>
<!DOCTYPE svg PUBLIC "-//W3C//DTD SVG 20010904//EN"
 "http://www.w3.org/TR/2001/REC-SVG-20010904/DTD/svg10.dtd">
<svg version="1.0" xmlns="http://www.w3.org/2000/svg"
 width="700.000000pt" height="700.000000pt" viewBox="0 0 700.000000 700.000000"
 preserveAspectRatio="xMidYMid meet">
<metadata>
Created by potrace 1.14, written by Peter Selinger 2001-2017
</metadata>
<g transform="translate(0.000000,700.000000) scale(0.100000,-0.100000)"
fill="#000000" stroke="none">
<path d="M2100 6989 c-648 -67 -1252 -410 -1639 -933 -253 -340 -410 -750
-451 -1175 -13 -139 -13 -2623 0 -2762 100 -1026 852 -1866 1855 -2069 248
-51 287 -52 1720 -47 1453 4 1366 1 1629 63 841 200 1511 867 1717 1709 67
275 64 195 64 1725 0 1530 3 1450 -64 1725 -215 876 -930 1559 -1811 1729 -74
14 -182 30 -239 36 -127 12 -2658 11 -2781 -1z m655 -1849 c190 -22 347 -78
539 -192 65 -39 137 -75 160 -79 66 -12 131 6 215 60 238 152 444 214 716 215
241 0 388 -35 598 -141 357 -182 598 -491 693 -890 14 -55 17 -143 21 -468 l4
-400 -22 43 c-13 25 -39 55 -62 70 l-40 27 -286 5 c-272 5 -288 6 -328 28 -24
12 -55 41 -70 64 -28 41 -28 42 -33 258 l-5 217 -42 85 c-125 251 -404 340
-652 208 -114 -61 -206 -188 -231 -319 -6 -34 -10 -396 -10 -990 0 -886 -1
-938 -19 -976 -22 -50 -69 -91 -119 -105 -49 -13 -515 -13 -564 0 -45 13 -93
51 -116 94 -16 28 -17 110 -22 1006 -5 966 -5 976 -27 1031 -74 196 -247 319
-448 319 -181 0 -339 -100 -422 -266 l-38 -78 -5 -990 c-5 -911 -6 -994 -22
-1022 -23 -43 -71 -81 -116 -94 -49 -13 -515 -13 -564 0 -48 14 -94 53 -118
101 -19 37 -20 65 -20 1022 0 839 2 997 15 1073 58 331 242 631 513 832 156
116 389 216 562 241 156 23 236 25 365 11z"/>
</g>
</svg>
